<?xml version="1.0" encoding="UTF-8" standalone="no"?>
<!DOCTYPE svg PUBLIC "-//W3C//DTD SVG 1.1//EN"
 "http://www.w3.org/Graphics/SVG/1.1/DTD/svg11.dtd">
<!-- Generated by graphviz version 13.1.2 (0)
 -->
<!-- Pages: 1 -->
<svg width="1295pt" height="322pt"
 viewBox="0.00 0.00 1295.00 322.00" xmlns="http://www.w3.org/2000/svg" xmlns:xlink="http://www.w3.org/1999/xlink">
<g id="graph0" class="graph" transform="scale(1 1) rotate(0) translate(4 318.16)">
<polygon fill="white" stroke="none" points="-4,4 -4,-318.16 1291.04,-318.16 1291.04,4 -4,4"/>
<!-- &#45;2743870918642313749 -->
<g id="node1" class="node">
<title>&#45;2743870918642313749</title>
<ellipse fill="none" stroke="black" cx="1160.32" cy="-119.02" rx="36.72" ry="36.72"/>
<text xml:space="preserve" text-anchor="middle" x="1160.32" y="-113.22" font-family="Helvetica,sans-Serif" font-size="14.00">truediv</text>
</g>
<!-- 4772510151259397198 -->
<g id="node2" class="node">
<title>4772510151259397198</title>
<polygon fill="none" stroke="black" points="1287.04,-137.02 1233.04,-137.02 1233.04,-101.02 1287.04,-101.02 1287.04,-137.02"/>
<text xml:space="preserve" text-anchor="middle" x="1260.04" y="-113.22" font-family="Helvetica,sans-Serif" font-size="14.00">0</text>
</g>
<!-- &#45;2743870918642313749&#45;&gt;4772510151259397198 -->
<g id="edge1" class="edge">
<title>&#45;2743870918642313749&#45;&gt;4772510151259397198</title>
<path fill="none" stroke="black" d="M1197.43,-119.02C1205.16,-119.02 1213.34,-119.02 1221.13,-119.02"/>
<polygon fill="black" stroke="black" points="1221.03,-122.52 1231.03,-119.02 1221.03,-115.52 1221.03,-122.52"/>
</g>
<!-- &#45;3626020461539654679 -->
<g id="node3" class="node">
<title>&#45;3626020461539654679</title>
<polygon fill="none" stroke="black" points="645.51,-105.02 591.51,-105.02 591.51,-69.02 645.51,-69.02 645.51,-105.02"/>
<text xml:space="preserve" text-anchor="middle" x="618.51" y="-81.22" font-family="Helvetica,sans-Serif" font-size="14.00">0</text>
</g>
<!-- &#45;3626020461539654679&#45;&gt;&#45;2743870918642313749 -->
<g id="edge2" class="edge">
<title>&#45;3626020461539654679&#45;&gt;&#45;2743870918642313749</title>
<path fill="none" stroke="black" d="M645.73,-89.2C680.1,-91.87 742.29,-96.02 795.53,-96.02 795.53,-96.02 795.53,-96.02 973.57,-96.02 1021.28,-96.02 1075.36,-103.59 1112.81,-110.04"/>
<polygon fill="black" stroke="black" points="1111.92,-113.44 1122.38,-111.73 1113.14,-106.54 1111.92,-113.44"/>
</g>
<!-- 3666174220438083282 -->
<g id="node4" class="node">
<title>3666174220438083282</title>
<polygon fill="none" stroke="black" points="1087.6,-163.02 1033.6,-163.02 1033.6,-127.02 1087.6,-127.02 1087.6,-163.02"/>
<text xml:space="preserve" text-anchor="middle" x="1060.6" y="-139.22" font-family="Helvetica,sans-Serif" font-size="14.00">0</text>
</g>
<!-- 3666174220438083282&#45;&gt;&#45;2743870918642313749 -->
<g id="edge3" class="edge">
<title>3666174220438083282&#45;&gt;&#45;2743870918642313749</title>
<path fill="none" stroke="black" d="M1088.04,-137.99C1095.91,-135.89 1104.77,-133.54 1113.5,-131.21"/>
<polygon fill="black" stroke="black" points="1114.18,-134.65 1122.94,-128.7 1112.38,-127.89 1114.18,-134.65"/>
</g>
<!-- 2906027730462320453 -->
<g id="node5" class="node">
<title>2906027730462320453</title>
<ellipse fill="none" stroke="black" cx="972.57" cy="-153.02" rx="25.02" ry="25.02"/>
<text xml:space="preserve" text-anchor="middle" x="972.57" y="-147.22" font-family="Helvetica,sans-Serif" font-size="14.00">add</text>
</g>
<!-- 2906027730462320453&#45;&gt;3666174220438083282 -->
<g id="edge4" class="edge">
<title>2906027730462320453&#45;&gt;3666174220438083282</title>
<path fill="none" stroke="black" d="M997.99,-150.75C1005.49,-150.05 1013.92,-149.27 1022.08,-148.51"/>
<polygon fill="black" stroke="black" points="1022.17,-152.02 1031.8,-147.61 1021.52,-145.05 1022.17,-152.02"/>
</g>
<!-- 2571268129428438100 -->
<g id="node6" class="node">
<title>2571268129428438100</title>
<polygon fill="none" stroke="black" points="911.55,-171.02 857.55,-171.02 857.55,-135.02 911.55,-135.02 911.55,-171.02"/>
<text xml:space="preserve" text-anchor="middle" x="884.55" y="-147.22" font-family="Helvetica,sans-Serif" font-size="14.00">0</text>
</g>
<!-- 2571268129428438100&#45;&gt;2906027730462320453 -->
<g id="edge5" class="edge">
<title>2571268129428438100&#45;&gt;2906027730462320453</title>
<path fill="none" stroke="black" d="M911.83,-153.02C919.4,-153.02 927.79,-153.02 935.83,-153.02"/>
<polygon fill="black" stroke="black" points="935.7,-156.52 945.7,-153.02 935.7,-149.52 935.7,-156.52"/>
</g>
<!-- 8027940787703493357 -->
<g id="node7" class="node">
<title>8027940787703493357</title>
<polygon fill="none" stroke="black" points="735.51,-234.02 681.51,-234.02 681.51,-198.02 735.51,-198.02 735.51,-234.02"/>
<text xml:space="preserve" text-anchor="middle" x="708.51" y="-210.22" font-family="Helvetica,sans-Serif" font-size="14.00">0</text>
</g>
<!-- 8027940787703493357&#45;&gt;2906027730462320453 -->
<g id="edge6" class="edge">
<title>8027940787703493357&#45;&gt;2906027730462320453</title>
<path fill="none" stroke="black" d="M735.83,-213.43C774.86,-209.11 850.1,-199 911.55,-180.02 920.87,-177.15 930.64,-173.19 939.53,-169.19"/>
<polygon fill="black" stroke="black" points="940.9,-172.41 948.47,-165 937.93,-166.07 940.9,-172.41"/>
</g>
<!-- &#45;4126860358649716603 -->
<g id="node8" class="node">
<title>&#45;4126860358649716603</title>
<ellipse fill="none" stroke="black" cx="246.4" cy="-274.02" rx="40.13" ry="40.13"/>
<text xml:space="preserve" text-anchor="middle" x="246.4" y="-268.22" font-family="Helvetica,sans-Serif" font-size="14.00">uniform</text>
</g>
<!-- &#45;8039170837061909747 -->
<g id="node9" class="node">
<title>&#45;8039170837061909747</title>
<polygon fill="none" stroke="black" points="376.54,-265.02 322.54,-265.02 322.54,-229.02 376.54,-229.02 376.54,-265.02"/>
<text xml:space="preserve" text-anchor="middle" x="349.54" y="-241.22" font-family="Helvetica,sans-Serif" font-size="14.00">0</text>
</g>
<!-- &#45;4126860358649716603&#45;&gt;&#45;8039170837061909747 -->
<g id="edge7" class="edge">
<title>&#45;4126860358649716603&#45;&gt;&#45;8039170837061909747</title>
<path fill="none" stroke="black" d="M285.64,-263.82C294.02,-261.58 302.88,-259.21 311.23,-256.98"/>
<polygon fill="black" stroke="black" points="311.98,-260.41 320.73,-254.44 310.17,-253.64 311.98,-260.41"/>
</g>
<!-- 7686559207846138895 -->
<g id="node10" class="node">
<title>7686559207846138895</title>
<ellipse fill="none" stroke="black" cx="439.02" cy="-247.02" rx="25.02" ry="25.02"/>
<text xml:space="preserve" text-anchor="middle" x="439.02" y="-241.22" font-family="Helvetica,sans-Serif" font-size="14.00">neg</text>
</g>
<!-- &#45;8039170837061909747&#45;&gt;7686559207846138895 -->
<g id="edge9" class="edge">
<title>&#45;8039170837061909747&#45;&gt;7686559207846138895</title>
<path fill="none" stroke="black" d="M376.78,-247.02C384.81,-247.02 393.78,-247.02 402.33,-247.02"/>
<polygon fill="black" stroke="black" points="402.07,-250.52 412.07,-247.02 402.07,-243.52 402.07,-250.52"/>
</g>
<!-- 591707899451267478 -->
<g id="node15" class="node">
<title>591707899451267478</title>
<ellipse fill="none" stroke="black" cx="439.02" cy="-177.02" rx="26.49" ry="26.49"/>
<text xml:space="preserve" text-anchor="middle" x="439.02" y="-171.22" font-family="Helvetica,sans-Serif" font-size="14.00">pow</text>
</g>
<!-- &#45;8039170837061909747&#45;&gt;591707899451267478 -->
<g id="edge14" class="edge">
<title>&#45;8039170837061909747&#45;&gt;591707899451267478</title>
<path fill="none" stroke="black" d="M373.52,-228.63C384.31,-220 397.28,-209.62 408.76,-200.43"/>
<polygon fill="black" stroke="black" points="410.77,-203.31 416.39,-194.33 406.4,-197.84 410.77,-203.31"/>
</g>
<!-- 7686559207846138895&#45;&gt;8027940787703493357 -->
<g id="edge8" class="edge">
<title>7686559207846138895&#45;&gt;8027940787703493357</title>
<path fill="none" stroke="black" d="M464.23,-244.22C511.05,-238.79 614.31,-226.82 670.06,-220.36"/>
<polygon fill="black" stroke="black" points="670.16,-223.87 679.69,-219.25 669.35,-216.92 670.16,-223.87"/>
</g>
<!-- &#45;9014824747703021360 -->
<g id="node11" class="node">
<title>&#45;9014824747703021360</title>
<ellipse fill="none" stroke="black" cx="618.51" cy="-153.02" rx="24.54" ry="24.54"/>
<text xml:space="preserve" text-anchor="middle" x="618.51" y="-147.22" font-family="Helvetica,sans-Serif" font-size="14.00">sub</text>
</g>
<!-- 4173088011838319700 -->
<g id="node12" class="node">
<title>4173088011838319700</title>
<polygon fill="none" stroke="black" points="735.51,-171.02 681.51,-171.02 681.51,-135.02 735.51,-135.02 735.51,-171.02"/>
<text xml:space="preserve" text-anchor="middle" x="708.51" y="-147.22" font-family="Helvetica,sans-Serif" font-size="14.00">0</text>
</g>
<!-- &#45;9014824747703021360&#45;&gt;4173088011838319700 -->
<g id="edge10" class="edge">
<title>&#45;9014824747703021360&#45;&gt;4173088011838319700</title>
<path fill="none" stroke="black" d="M643.09,-153.02C651.23,-153.02 660.57,-153.02 669.57,-153.02"/>
<polygon fill="black" stroke="black" points="669.55,-156.52 679.55,-153.02 669.55,-149.52 669.55,-156.52"/>
</g>
<!-- 8745556918477679262 -->
<g id="node23" class="node">
<title>8745556918477679262</title>
<ellipse fill="none" stroke="black" cx="796.53" cy="-153.02" rx="25.02" ry="25.02"/>
<text xml:space="preserve" text-anchor="middle" x="796.53" y="-147.22" font-family="Helvetica,sans-Serif" font-size="14.00">sqrt</text>
</g>
<!-- 4173088011838319700&#45;&gt;8745556918477679262 -->
<g id="edge23" class="edge">
<title>4173088011838319700&#45;&gt;8745556918477679262</title>
<path fill="none" stroke="black" d="M735.78,-153.02C743.35,-153.02 751.74,-153.02 759.78,-153.02"/>
<polygon fill="black" stroke="black" points="759.66,-156.52 769.66,-153.02 759.66,-149.52 759.66,-156.52"/>
</g>
<!-- &#45;6922910224174381687 -->
<g id="node13" class="node">
<title>&#45;6922910224174381687</title>
<polygon fill="none" stroke="black" points="555.51,-129.02 501.51,-129.02 501.51,-93.02 555.51,-93.02 555.51,-129.02"/>
<text xml:space="preserve" text-anchor="middle" x="528.51" y="-105.22" font-family="Helvetica,sans-Serif" font-size="14.00">0</text>
</g>
<!-- &#45;6922910224174381687&#45;&gt;&#45;9014824747703021360 -->
<g id="edge11" class="edge">
<title>&#45;6922910224174381687&#45;&gt;&#45;9014824747703021360</title>
<path fill="none" stroke="black" d="M555.91,-123.62C565.28,-128.1 575.92,-133.18 585.69,-137.84"/>
<polygon fill="black" stroke="black" points="583.96,-140.89 594.49,-142.04 586.97,-134.57 583.96,-140.89"/>
</g>
<!-- 126549610470248301 -->
<g id="node14" class="node">
<title>126549610470248301</title>
<polygon fill="none" stroke="black" points="555.51,-191.02 501.51,-191.02 501.51,-155.02 555.51,-155.02 555.51,-191.02"/>
<text xml:space="preserve" text-anchor="middle" x="528.51" y="-167.22" font-family="Helvetica,sans-Serif" font-size="14.00">0</text>
</g>
<!-- 126549610470248301&#45;&gt;&#45;9014824747703021360 -->
<g id="edge12" class="edge">
<title>126549610470248301&#45;&gt;&#45;9014824747703021360</title>
<path fill="none" stroke="black" d="M555.91,-167.02C564.45,-165.08 574.06,-162.9 583.09,-160.84"/>
<polygon fill="black" stroke="black" points="583.66,-164.3 592.64,-158.68 582.11,-157.48 583.66,-164.3"/>
</g>
<!-- 591707899451267478&#45;&gt;126549610470248301 -->
<g id="edge13" class="edge">
<title>591707899451267478&#45;&gt;126549610470248301</title>
<path fill="none" stroke="black" d="M465.8,-175.84C473.4,-175.5 481.88,-175.11 490.07,-174.73"/>
<polygon fill="black" stroke="black" points="489.97,-178.24 499.8,-174.29 489.65,-171.25 489.97,-178.24"/>
</g>
<!-- &#45;9031059741823437687 -->
<g id="node16" class="node">
<title>&#45;9031059741823437687</title>
<ellipse fill="none" stroke="black" cx="439.02" cy="-107.02" rx="25.02" ry="25.02"/>
<text xml:space="preserve" text-anchor="middle" x="439.02" y="-101.22" font-family="Helvetica,sans-Serif" font-size="14.00">mul</text>
</g>
<!-- &#45;9031059741823437687&#45;&gt;&#45;6922910224174381687 -->
<g id="edge15" class="edge">
<title>&#45;9031059741823437687&#45;&gt;&#45;6922910224174381687</title>
<path fill="none" stroke="black" d="M464.39,-108.14C472.25,-108.5 481.15,-108.9 489.73,-109.3"/>
<polygon fill="black" stroke="black" points="489.46,-112.79 499.61,-109.75 489.78,-105.79 489.46,-112.79"/>
</g>
<!-- &#45;3969603605042311775 -->
<g id="node17" class="node">
<title>&#45;3969603605042311775</title>
<polygon fill="none" stroke="black" points="376.54,-180.02 322.54,-180.02 322.54,-144.02 376.54,-144.02 376.54,-180.02"/>
<text xml:space="preserve" text-anchor="middle" x="349.54" y="-156.22" font-family="Helvetica,sans-Serif" font-size="14.00">0</text>
</g>
<!-- &#45;3969603605042311775&#45;&gt;&#45;9031059741823437687 -->
<g id="edge16" class="edge">
<title>&#45;3969603605042311775&#45;&gt;&#45;9031059741823437687</title>
<path fill="none" stroke="black" d="M376.78,-145.52C386.52,-139.4 397.65,-132.4 407.72,-126.07"/>
<polygon fill="black" stroke="black" points="409.46,-129.11 416.07,-120.82 405.74,-123.18 409.46,-129.11"/>
</g>
<!-- 265439598979506018 -->
<g id="node18" class="node">
<title>265439598979506018</title>
<polygon fill="none" stroke="black" points="376.54,-118.02 322.54,-118.02 322.54,-82.02 376.54,-82.02 376.54,-118.02"/>
<text xml:space="preserve" text-anchor="middle" x="349.54" y="-94.22" font-family="Helvetica,sans-Serif" font-size="14.00">0</text>
</g>
<!-- 265439598979506018&#45;&gt;&#45;9031059741823437687 -->
<g id="edge17" class="edge">
<title>265439598979506018&#45;&gt;&#45;9031059741823437687</title>
<path fill="none" stroke="black" d="M376.78,-102.12C384.81,-102.77 393.78,-103.48 402.33,-104.17"/>
<polygon fill="black" stroke="black" points="401.83,-107.64 412.08,-104.95 402.39,-100.66 401.83,-107.64"/>
</g>
<!-- 6403705369574871161 -->
<g id="node19" class="node">
<title>6403705369574871161</title>
<ellipse fill="none" stroke="black" cx="40.13" cy="-59.02" rx="40.13" ry="40.13"/>
<text xml:space="preserve" text-anchor="middle" x="40.13" y="-53.22" font-family="Helvetica,sans-Serif" font-size="14.00">uniform</text>
</g>
<!-- &#45;1195119766044840583 -->
<g id="node20" class="node">
<title>&#45;1195119766044840583</title>
<polygon fill="none" stroke="black" points="170.27,-77.02 116.27,-77.02 116.27,-41.02 170.27,-41.02 170.27,-77.02"/>
<text xml:space="preserve" text-anchor="middle" x="143.27" y="-53.22" font-family="Helvetica,sans-Serif" font-size="14.00">0</text>
</g>
<!-- 6403705369574871161&#45;&gt;&#45;1195119766044840583 -->
<g id="edge18" class="edge">
<title>6403705369574871161&#45;&gt;&#45;1195119766044840583</title>
<path fill="none" stroke="black" d="M80.52,-59.02C88.41,-59.02 96.67,-59.02 104.49,-59.02"/>
<polygon fill="black" stroke="black" points="104.42,-62.52 114.42,-59.02 104.42,-55.52 104.42,-62.52"/>
</g>
<!-- 4555929867054300019 -->
<g id="node21" class="node">
<title>4555929867054300019</title>
<ellipse fill="none" stroke="black" cx="246.4" cy="-93.02" rx="25.02" ry="25.02"/>
<text xml:space="preserve" text-anchor="middle" x="246.4" y="-87.22" font-family="Helvetica,sans-Serif" font-size="14.00">mul</text>
</g>
<!-- &#45;1195119766044840583&#45;&gt;4555929867054300019 -->
<g id="edge20" class="edge">
<title>&#45;1195119766044840583&#45;&gt;4555929867054300019</title>
<path fill="none" stroke="black" d="M170.58,-67.87C183.1,-72.08 198.24,-77.17 211.6,-81.66"/>
<polygon fill="black" stroke="black" points="210.29,-84.91 220.89,-84.78 212.53,-78.28 210.29,-84.91"/>
</g>
<!-- 6418720800089460404 -->
<g id="node24" class="node">
<title>6418720800089460404</title>
<ellipse fill="none" stroke="black" cx="246.4" cy="-25.02" rx="25.02" ry="25.02"/>
<text xml:space="preserve" text-anchor="middle" x="246.4" y="-19.22" font-family="Helvetica,sans-Serif" font-size="14.00">mul</text>
</g>
<!-- &#45;1195119766044840583&#45;&gt;6418720800089460404 -->
<g id="edge25" class="edge">
<title>&#45;1195119766044840583&#45;&gt;6418720800089460404</title>
<path fill="none" stroke="black" d="M170.58,-50.18C183.1,-45.97 198.24,-40.88 211.6,-36.39"/>
<polygon fill="black" stroke="black" points="212.53,-39.77 220.89,-33.26 210.29,-33.13 212.53,-39.77"/>
</g>
<!-- 4555929867054300019&#45;&gt;265439598979506018 -->
<g id="edge19" class="edge">
<title>4555929867054300019&#45;&gt;265439598979506018</title>
<path fill="none" stroke="black" d="M271.63,-94.7C283.47,-95.52 297.98,-96.52 311.2,-97.44"/>
<polygon fill="black" stroke="black" points="310.66,-100.91 320.87,-98.11 311.14,-93.93 310.66,-100.91"/>
</g>
<!-- &#45;408508944110719106 -->
<g id="node22" class="node">
<title>&#45;408508944110719106</title>
<ellipse fill="none" stroke="black" cx="246.4" cy="-176.02" rx="40.13" ry="40.13"/>
<text xml:space="preserve" text-anchor="middle" x="246.4" y="-170.22" font-family="Helvetica,sans-Serif" font-size="14.00">uniform</text>
</g>
<!-- &#45;408508944110719106&#45;&gt;&#45;3969603605042311775 -->
<g id="edge21" class="edge">
<title>&#45;408508944110719106&#45;&gt;&#45;3969603605042311775</title>
<path fill="none" stroke="black" d="M286.5,-170.61C294.49,-169.5 302.89,-168.34 310.83,-167.24"/>
<polygon fill="black" stroke="black" points="311.12,-170.74 320.54,-165.9 310.16,-163.8 311.12,-170.74"/>
</g>
<!-- 8745556918477679262&#45;&gt;2571268129428438100 -->
<g id="edge22" class="edge">
<title>8745556918477679262&#45;&gt;2571268129428438100</title>
<path fill="none" stroke="black" d="M821.95,-153.02C829.36,-153.02 837.68,-153.02 845.75,-153.02"/>
<polygon fill="black" stroke="black" points="845.75,-156.52 855.75,-153.02 845.75,-149.52 845.75,-156.52"/>
</g>
<!-- 6418720800089460404&#45;&gt;&#45;3626020461539654679 -->
<g id="edge24" class="edge">
<title>6418720800089460404&#45;&gt;&#45;3626020461539654679</title>
<path fill="none" stroke="black" d="M271.4,-29.04C334.33,-39.58 504.44,-68.08 580.21,-80.78"/>
<polygon fill="black" stroke="black" points="579.18,-84.15 589.62,-82.35 580.33,-77.25 579.18,-84.15"/>
</g>
</g>
</svg>
