<?xml version="1.0" encoding="UTF-8" standalone="no"?>
<!DOCTYPE svg PUBLIC "-//W3C//DTD SVG 1.1//EN"
 "http://www.w3.org/Graphics/SVG/1.1/DTD/svg11.dtd">
<!-- Generated by graphviz version 13.1.2 (0)
 -->
<!-- Pages: 1 -->
<svg width="373pt" height="224pt"
 viewBox="0.00 0.00 373.00 224.00" xmlns="http://www.w3.org/2000/svg" xmlns:xlink="http://www.w3.org/1999/xlink">
<g id="graph0" class="graph" transform="scale(1 1) rotate(0) translate(4 219.79)">
<polygon fill="white" stroke="none" points="-4,4 -4,-219.79 368.84,-219.79 368.84,4 -4,4"/>
<!-- &#45;526604528504928497 -->
<g id="node1" class="node">
<title>&#45;526604528504928497</title>
<ellipse fill="none" stroke="black" cx="249.81" cy="-107.4" rx="25.02" ry="25.02"/>
<text xml:space="preserve" text-anchor="middle" x="249.81" y="-101.6" font-family="Helvetica,sans-Serif" font-size="14.00">add</text>
</g>
<!-- &#45;4455355528412353967 -->
<g id="node2" class="node">
<title>&#45;4455355528412353967</title>
<polygon fill="none" stroke="black" points="364.84,-125.4 310.84,-125.4 310.84,-89.4 364.84,-89.4 364.84,-125.4"/>
</g>
<!-- &#45;526604528504928497&#45;&gt;&#45;4455355528412353967 -->
<g id="edge1" class="edge">
<title>&#45;526604528504928497&#45;&gt;&#45;4455355528412353967</title>
<path fill="none" stroke="black" d="M275.23,-107.4C282.64,-107.4 290.96,-107.4 299.04,-107.4"/>
<polygon fill="black" stroke="black" points="299.04,-110.9 309.04,-107.4 299.04,-103.9 299.04,-110.9"/>
</g>
<!-- &#45;385965090196333184 -->
<g id="node3" class="node">
<title>&#45;385965090196333184</title>
<polygon fill="none" stroke="black" points="188.79,-168.4 134.79,-168.4 134.79,-132.4 188.79,-132.4 188.79,-168.4"/>
</g>
<!-- &#45;385965090196333184&#45;&gt;&#45;526604528504928497 -->
<g id="edge2" class="edge">
<title>&#45;385965090196333184&#45;&gt;&#45;526604528504928497</title>
<path fill="none" stroke="black" d="M189.07,-137.26C197.8,-132.89 207.63,-127.98 216.76,-123.42"/>
<polygon fill="black" stroke="black" points="218.3,-126.56 225.68,-118.96 215.17,-120.3 218.3,-126.56"/>
</g>
<!-- &#45;6689258820586579711 -->
<g id="node4" class="node">
<title>&#45;6689258820586579711</title>
<polygon fill="none" stroke="black" points="188.79,-98.4 134.79,-98.4 134.79,-62.4 188.79,-62.4 188.79,-98.4"/>
</g>
<!-- &#45;6689258820586579711&#45;&gt;&#45;526604528504928497 -->
<g id="edge3" class="edge">
<title>&#45;6689258820586579711&#45;&gt;&#45;526604528504928497</title>
<path fill="none" stroke="black" d="M189.07,-88.64C197.18,-91.19 206.22,-94.03 214.78,-96.71"/>
<polygon fill="black" stroke="black" points="213.58,-100 224.17,-99.66 215.68,-93.33 213.58,-100"/>
</g>
<!-- 1943232356867358944 -->
<g id="node5" class="node">
<title>1943232356867358944</title>
<ellipse fill="none" stroke="black" cx="49.4" cy="-166.4" rx="49.4" ry="49.4"/>
<text xml:space="preserve" text-anchor="middle" x="49.4" y="-160.6" font-family="Helvetica,sans-Serif" font-size="14.00">increment</text>
</g>
<!-- 1943232356867358944&#45;&gt;&#45;385965090196333184 -->
<g id="edge4" class="edge">
<title>1943232356867358944&#45;&gt;&#45;385965090196333184</title>
<path fill="none" stroke="black" d="M98.5,-159.42C106.77,-158.22 115.26,-156.99 123.21,-155.84"/>
<polygon fill="black" stroke="black" points="123.49,-159.34 132.88,-154.44 122.48,-152.41 123.49,-159.34"/>
</g>
<!-- &#45;7919295315908333023 -->
<g id="node6" class="node">
<title>&#45;7919295315908333023</title>
<ellipse fill="none" stroke="black" cx="49.4" cy="-49.4" rx="49.4" ry="49.4"/>
<text xml:space="preserve" text-anchor="middle" x="49.4" y="-43.6" font-family="Helvetica,sans-Serif" font-size="14.00">increment</text>
</g>
<!-- &#45;7919295315908333023&#45;&gt;&#45;6689258820586579711 -->
<g id="edge5" class="edge">
<title>&#45;7919295315908333023&#45;&gt;&#45;6689258820586579711</title>
<path fill="none" stroke="black" d="M97.21,-62.54C105.94,-64.99 114.95,-67.52 123.35,-69.88"/>
<polygon fill="black" stroke="black" points="122.31,-73.22 132.88,-72.56 124.2,-66.49 122.31,-73.22"/>
</g>
</g>
</svg>
