<?xml version="1.0" encoding="UTF-8" standalone="no"?>
<!DOCTYPE svg PUBLIC "-//W3C//DTD SVG 1.1//EN"
 "http://www.w3.org/Graphics/SVG/1.1/DTD/svg11.dtd">
<!-- Generated by graphviz version 13.1.2 (0)
 -->
<!-- Pages: 1 -->
<svg width="1295pt" height="322pt"
 viewBox="0.00 0.00 1295.00 322.00" xmlns="http://www.w3.org/2000/svg" xmlns:xlink="http://www.w3.org/1999/xlink">
<g id="graph0" class="graph" transform="scale(1 1) rotate(0) translate(4 318.16)">
<polygon fill="white" stroke="none" points="-4,4 -4,-318.16 1291.04,-318.16 1291.04,4 -4,4"/>
<!-- &#45;7203293996694788416 -->
<g id="node1" class="node">
<title>&#45;7203293996694788416</title>
<ellipse fill="none" stroke="black" cx="1160.32" cy="-138.02" rx="36.72" ry="36.72"/>
<text xml:space="preserve" text-anchor="middle" x="1160.32" y="-132.22" font-family="Helvetica,sans-Serif" font-size="14.00">truediv</text>
</g>
<!-- 4299196689693942218 -->
<g id="node2" class="node">
<title>4299196689693942218</title>
<polygon fill="none" stroke="black" points="1287.04,-156.02 1233.04,-156.02 1233.04,-120.02 1287.04,-120.02 1287.04,-156.02"/>
<text xml:space="preserve" text-anchor="middle" x="1260.04" y="-132.22" font-family="Helvetica,sans-Serif" font-size="14.00">0</text>
</g>
<!-- &#45;7203293996694788416&#45;&gt;4299196689693942218 -->
<g id="edge1" class="edge">
<title>&#45;7203293996694788416&#45;&gt;4299196689693942218</title>
<path fill="none" stroke="black" d="M1197.43,-138.02C1205.16,-138.02 1213.34,-138.02 1221.13,-138.02"/>
<polygon fill="black" stroke="black" points="1221.03,-141.52 1231.03,-138.02 1221.03,-134.52 1221.03,-141.52"/>
</g>
<!-- 350168466909242971 -->
<g id="node3" class="node">
<title>350168466909242971</title>
<polygon fill="none" stroke="black" points="1087.6,-182.02 1033.6,-182.02 1033.6,-146.02 1087.6,-146.02 1087.6,-182.02"/>
<text xml:space="preserve" text-anchor="middle" x="1060.6" y="-158.22" font-family="Helvetica,sans-Serif" font-size="14.00">0</text>
</g>
<!-- 350168466909242971&#45;&gt;&#45;7203293996694788416 -->
<g id="edge2" class="edge">
<title>350168466909242971&#45;&gt;&#45;7203293996694788416</title>
<path fill="none" stroke="black" d="M1088.04,-156.99C1095.91,-154.89 1104.77,-152.54 1113.5,-150.21"/>
<polygon fill="black" stroke="black" points="1114.18,-153.65 1122.94,-147.7 1112.38,-146.89 1114.18,-153.65"/>
</g>
<!-- &#45;1515695460044268345 -->
<g id="node4" class="node">
<title>&#45;1515695460044268345</title>
<polygon fill="none" stroke="black" points="645.51,-124.02 591.51,-124.02 591.51,-88.02 645.51,-88.02 645.51,-124.02"/>
<text xml:space="preserve" text-anchor="middle" x="618.51" y="-100.22" font-family="Helvetica,sans-Serif" font-size="14.00">0</text>
</g>
<!-- &#45;1515695460044268345&#45;&gt;&#45;7203293996694788416 -->
<g id="edge3" class="edge">
<title>&#45;1515695460044268345&#45;&gt;&#45;7203293996694788416</title>
<path fill="none" stroke="black" d="M645.73,-108.2C680.1,-110.87 742.29,-115.02 795.53,-115.02 795.53,-115.02 795.53,-115.02 973.57,-115.02 1021.28,-115.02 1075.36,-122.59 1112.81,-129.04"/>
<polygon fill="black" stroke="black" points="1111.92,-132.44 1122.38,-130.73 1113.14,-125.54 1111.92,-132.44"/>
</g>
<!-- &#45;6752650036225117781 -->
<g id="node5" class="node">
<title>&#45;6752650036225117781</title>
<ellipse fill="none" stroke="black" cx="972.57" cy="-172.02" rx="25.02" ry="25.02"/>
<text xml:space="preserve" text-anchor="middle" x="972.57" y="-166.22" font-family="Helvetica,sans-Serif" font-size="14.00">add</text>
</g>
<!-- &#45;6752650036225117781&#45;&gt;350168466909242971 -->
<g id="edge4" class="edge">
<title>&#45;6752650036225117781&#45;&gt;350168466909242971</title>
<path fill="none" stroke="black" d="M997.99,-169.75C1005.49,-169.05 1013.92,-168.27 1022.08,-167.51"/>
<polygon fill="black" stroke="black" points="1022.17,-171.02 1031.8,-166.61 1021.52,-164.05 1022.17,-171.02"/>
</g>
<!-- &#45;2482890326104515324 -->
<g id="node6" class="node">
<title>&#45;2482890326104515324</title>
<polygon fill="none" stroke="black" points="735.51,-253.02 681.51,-253.02 681.51,-217.02 735.51,-217.02 735.51,-253.02"/>
<text xml:space="preserve" text-anchor="middle" x="708.51" y="-229.22" font-family="Helvetica,sans-Serif" font-size="14.00">0</text>
</g>
<!-- &#45;2482890326104515324&#45;&gt;&#45;6752650036225117781 -->
<g id="edge5" class="edge">
<title>&#45;2482890326104515324&#45;&gt;&#45;6752650036225117781</title>
<path fill="none" stroke="black" d="M735.83,-232.43C774.86,-228.11 850.1,-218 911.55,-199.02 920.87,-196.15 930.64,-192.19 939.53,-188.19"/>
<polygon fill="black" stroke="black" points="940.9,-191.41 948.47,-184 937.93,-185.07 940.9,-191.41"/>
</g>
<!-- 3065342511703924247 -->
<g id="node7" class="node">
<title>3065342511703924247</title>
<polygon fill="none" stroke="black" points="911.55,-190.02 857.55,-190.02 857.55,-154.02 911.55,-154.02 911.55,-190.02"/>
<text xml:space="preserve" text-anchor="middle" x="884.55" y="-166.22" font-family="Helvetica,sans-Serif" font-size="14.00">0</text>
</g>
<!-- 3065342511703924247&#45;&gt;&#45;6752650036225117781 -->
<g id="edge6" class="edge">
<title>3065342511703924247&#45;&gt;&#45;6752650036225117781</title>
<path fill="none" stroke="black" d="M911.83,-172.02C919.4,-172.02 927.79,-172.02 935.83,-172.02"/>
<polygon fill="black" stroke="black" points="935.7,-175.52 945.7,-172.02 935.7,-168.52 935.7,-175.52"/>
</g>
<!-- &#45;6546011625751140101 -->
<g id="node8" class="node">
<title>&#45;6546011625751140101</title>
<ellipse fill="none" stroke="black" cx="246.4" cy="-274.02" rx="40.13" ry="40.13"/>
<text xml:space="preserve" text-anchor="middle" x="246.4" y="-268.22" font-family="Helvetica,sans-Serif" font-size="14.00">uniform</text>
</g>
<!-- 4749444652149072202 -->
<g id="node9" class="node">
<title>4749444652149072202</title>
<polygon fill="none" stroke="black" points="376.54,-284.02 322.54,-284.02 322.54,-248.02 376.54,-248.02 376.54,-284.02"/>
<text xml:space="preserve" text-anchor="middle" x="349.54" y="-260.22" font-family="Helvetica,sans-Serif" font-size="14.00">0</text>
</g>
<!-- &#45;6546011625751140101&#45;&gt;4749444652149072202 -->
<g id="edge7" class="edge">
<title>&#45;6546011625751140101&#45;&gt;4749444652149072202</title>
<path fill="none" stroke="black" d="M286.79,-270.91C294.67,-270.28 302.94,-269.63 310.76,-269.01"/>
<polygon fill="black" stroke="black" points="311,-272.5 320.69,-268.23 310.44,-265.53 311,-272.5"/>
</g>
<!-- &#45;5458537621699948849 -->
<g id="node10" class="node">
<title>&#45;5458537621699948849</title>
<ellipse fill="none" stroke="black" cx="439.02" cy="-266.02" rx="25.02" ry="25.02"/>
<text xml:space="preserve" text-anchor="middle" x="439.02" y="-260.22" font-family="Helvetica,sans-Serif" font-size="14.00">neg</text>
</g>
<!-- 4749444652149072202&#45;&gt;&#45;5458537621699948849 -->
<g id="edge9" class="edge">
<title>4749444652149072202&#45;&gt;&#45;5458537621699948849</title>
<path fill="none" stroke="black" d="M376.78,-266.02C384.81,-266.02 393.78,-266.02 402.33,-266.02"/>
<polygon fill="black" stroke="black" points="402.07,-269.52 412.07,-266.02 402.07,-262.52 402.07,-269.52"/>
</g>
<!-- 5418318801891136068 -->
<g id="node15" class="node">
<title>5418318801891136068</title>
<ellipse fill="none" stroke="black" cx="439.02" cy="-196.02" rx="26.49" ry="26.49"/>
<text xml:space="preserve" text-anchor="middle" x="439.02" y="-190.22" font-family="Helvetica,sans-Serif" font-size="14.00">pow</text>
</g>
<!-- 4749444652149072202&#45;&gt;5418318801891136068 -->
<g id="edge14" class="edge">
<title>4749444652149072202&#45;&gt;5418318801891136068</title>
<path fill="none" stroke="black" d="M373.52,-247.63C384.31,-239 397.28,-228.62 408.76,-219.43"/>
<polygon fill="black" stroke="black" points="410.77,-222.31 416.39,-213.33 406.4,-216.84 410.77,-222.31"/>
</g>
<!-- &#45;5458537621699948849&#45;&gt;&#45;2482890326104515324 -->
<g id="edge8" class="edge">
<title>&#45;5458537621699948849&#45;&gt;&#45;2482890326104515324</title>
<path fill="none" stroke="black" d="M464.23,-263.22C511.05,-257.79 614.31,-245.82 670.06,-239.36"/>
<polygon fill="black" stroke="black" points="670.16,-242.87 679.69,-238.25 669.35,-235.92 670.16,-242.87"/>
</g>
<!-- 3474834909061271666 -->
<g id="node11" class="node">
<title>3474834909061271666</title>
<ellipse fill="none" stroke="black" cx="618.51" cy="-172.02" rx="24.54" ry="24.54"/>
<text xml:space="preserve" text-anchor="middle" x="618.51" y="-166.22" font-family="Helvetica,sans-Serif" font-size="14.00">sub</text>
</g>
<!-- 7070663197300822959 -->
<g id="node12" class="node">
<title>7070663197300822959</title>
<polygon fill="none" stroke="black" points="735.51,-190.02 681.51,-190.02 681.51,-154.02 735.51,-154.02 735.51,-190.02"/>
<text xml:space="preserve" text-anchor="middle" x="708.51" y="-166.22" font-family="Helvetica,sans-Serif" font-size="14.00">0</text>
</g>
<!-- 3474834909061271666&#45;&gt;7070663197300822959 -->
<g id="edge10" class="edge">
<title>3474834909061271666&#45;&gt;7070663197300822959</title>
<path fill="none" stroke="black" d="M643.09,-172.02C651.23,-172.02 660.57,-172.02 669.57,-172.02"/>
<polygon fill="black" stroke="black" points="669.55,-175.52 679.55,-172.02 669.55,-168.52 669.55,-175.52"/>
</g>
<!-- &#45;1772089014384944491 -->
<g id="node23" class="node">
<title>&#45;1772089014384944491</title>
<ellipse fill="none" stroke="black" cx="796.53" cy="-172.02" rx="25.02" ry="25.02"/>
<text xml:space="preserve" text-anchor="middle" x="796.53" y="-166.22" font-family="Helvetica,sans-Serif" font-size="14.00">sqrt</text>
</g>
<!-- 7070663197300822959&#45;&gt;&#45;1772089014384944491 -->
<g id="edge23" class="edge">
<title>7070663197300822959&#45;&gt;&#45;1772089014384944491</title>
<path fill="none" stroke="black" d="M735.78,-172.02C743.35,-172.02 751.74,-172.02 759.78,-172.02"/>
<polygon fill="black" stroke="black" points="759.66,-175.52 769.66,-172.02 759.66,-168.52 759.66,-175.52"/>
</g>
<!-- &#45;7255559829777174143 -->
<g id="node13" class="node">
<title>&#45;7255559829777174143</title>
<polygon fill="none" stroke="black" points="555.51,-210.02 501.51,-210.02 501.51,-174.02 555.51,-174.02 555.51,-210.02"/>
<text xml:space="preserve" text-anchor="middle" x="528.51" y="-186.22" font-family="Helvetica,sans-Serif" font-size="14.00">0</text>
</g>
<!-- &#45;7255559829777174143&#45;&gt;3474834909061271666 -->
<g id="edge11" class="edge">
<title>&#45;7255559829777174143&#45;&gt;3474834909061271666</title>
<path fill="none" stroke="black" d="M555.91,-186.02C564.45,-184.08 574.06,-181.9 583.09,-179.84"/>
<polygon fill="black" stroke="black" points="583.66,-183.3 592.64,-177.68 582.11,-176.48 583.66,-183.3"/>
</g>
<!-- 2011207421224092484 -->
<g id="node14" class="node">
<title>2011207421224092484</title>
<polygon fill="none" stroke="black" points="555.51,-148.02 501.51,-148.02 501.51,-112.02 555.51,-112.02 555.51,-148.02"/>
<text xml:space="preserve" text-anchor="middle" x="528.51" y="-124.22" font-family="Helvetica,sans-Serif" font-size="14.00">0</text>
</g>
<!-- 2011207421224092484&#45;&gt;3474834909061271666 -->
<g id="edge12" class="edge">
<title>2011207421224092484&#45;&gt;3474834909061271666</title>
<path fill="none" stroke="black" d="M555.91,-142.62C565.28,-147.1 575.92,-152.18 585.69,-156.84"/>
<polygon fill="black" stroke="black" points="583.96,-159.89 594.49,-161.04 586.97,-153.57 583.96,-159.89"/>
</g>
<!-- 5418318801891136068&#45;&gt;&#45;7255559829777174143 -->
<g id="edge13" class="edge">
<title>5418318801891136068&#45;&gt;&#45;7255559829777174143</title>
<path fill="none" stroke="black" d="M465.8,-194.84C473.4,-194.5 481.88,-194.11 490.07,-193.73"/>
<polygon fill="black" stroke="black" points="489.97,-197.24 499.8,-193.29 489.65,-190.25 489.97,-197.24"/>
</g>
<!-- 3642513338757375136 -->
<g id="node16" class="node">
<title>3642513338757375136</title>
<ellipse fill="none" stroke="black" cx="439.02" cy="-126.02" rx="25.02" ry="25.02"/>
<text xml:space="preserve" text-anchor="middle" x="439.02" y="-120.22" font-family="Helvetica,sans-Serif" font-size="14.00">mul</text>
</g>
<!-- 3642513338757375136&#45;&gt;2011207421224092484 -->
<g id="edge15" class="edge">
<title>3642513338757375136&#45;&gt;2011207421224092484</title>
<path fill="none" stroke="black" d="M464.39,-127.14C472.25,-127.5 481.15,-127.9 489.73,-128.3"/>
<polygon fill="black" stroke="black" points="489.46,-131.79 499.61,-128.75 489.78,-124.79 489.46,-131.79"/>
</g>
<!-- 1528370338877903235 -->
<g id="node17" class="node">
<title>1528370338877903235</title>
<polygon fill="none" stroke="black" points="376.54,-195.02 322.54,-195.02 322.54,-159.02 376.54,-159.02 376.54,-195.02"/>
<text xml:space="preserve" text-anchor="middle" x="349.54" y="-171.22" font-family="Helvetica,sans-Serif" font-size="14.00">0</text>
</g>
<!-- 1528370338877903235&#45;&gt;3642513338757375136 -->
<g id="edge16" class="edge">
<title>1528370338877903235&#45;&gt;3642513338757375136</title>
<path fill="none" stroke="black" d="M376.78,-161.72C386.27,-156.19 397.08,-149.89 406.94,-144.14"/>
<polygon fill="black" stroke="black" points="408.6,-147.23 415.47,-139.17 405.07,-141.18 408.6,-147.23"/>
</g>
<!-- 2114742950832348199 -->
<g id="node18" class="node">
<title>2114742950832348199</title>
<polygon fill="none" stroke="black" points="376.54,-133.02 322.54,-133.02 322.54,-97.02 376.54,-97.02 376.54,-133.02"/>
<text xml:space="preserve" text-anchor="middle" x="349.54" y="-109.22" font-family="Helvetica,sans-Serif" font-size="14.00">0</text>
</g>
<!-- 2114742950832348199&#45;&gt;3642513338757375136 -->
<g id="edge17" class="edge">
<title>2114742950832348199&#45;&gt;3642513338757375136</title>
<path fill="none" stroke="black" d="M376.78,-118.32C384.88,-119.34 393.94,-120.48 402.55,-121.56"/>
<polygon fill="black" stroke="black" points="402.02,-125.02 412.38,-122.8 402.89,-118.08 402.02,-125.02"/>
</g>
<!-- &#45;9120576035860698519 -->
<g id="node19" class="node">
<title>&#45;9120576035860698519</title>
<ellipse fill="none" stroke="black" cx="40.13" cy="-108.02" rx="40.13" ry="40.13"/>
<text xml:space="preserve" text-anchor="middle" x="40.13" y="-102.22" font-family="Helvetica,sans-Serif" font-size="14.00">uniform</text>
</g>
<!-- 2680947685884225040 -->
<g id="node20" class="node">
<title>2680947685884225040</title>
<polygon fill="none" stroke="black" points="170.27,-126.02 116.27,-126.02 116.27,-90.02 170.27,-90.02 170.27,-126.02"/>
<text xml:space="preserve" text-anchor="middle" x="143.27" y="-102.22" font-family="Helvetica,sans-Serif" font-size="14.00">0</text>
</g>
<!-- &#45;9120576035860698519&#45;&gt;2680947685884225040 -->
<g id="edge18" class="edge">
<title>&#45;9120576035860698519&#45;&gt;2680947685884225040</title>
<path fill="none" stroke="black" d="M80.52,-108.02C88.41,-108.02 96.67,-108.02 104.49,-108.02"/>
<polygon fill="black" stroke="black" points="104.42,-111.52 114.42,-108.02 104.42,-104.52 104.42,-111.52"/>
</g>
<!-- &#45;464163269496087825 -->
<g id="node21" class="node">
<title>&#45;464163269496087825</title>
<ellipse fill="none" stroke="black" cx="246.4" cy="-191.02" rx="25.02" ry="25.02"/>
<text xml:space="preserve" text-anchor="middle" x="246.4" y="-185.22" font-family="Helvetica,sans-Serif" font-size="14.00">mul</text>
</g>
<!-- 2680947685884225040&#45;&gt;&#45;464163269496087825 -->
<g id="edge20" class="edge">
<title>2680947685884225040&#45;&gt;&#45;464163269496087825</title>
<path fill="none" stroke="black" d="M166.71,-126.44C181.84,-138.85 201.88,-155.3 217.95,-168.49"/>
<polygon fill="black" stroke="black" points="215.3,-170.84 225.25,-174.48 219.74,-165.43 215.3,-170.84"/>
</g>
<!-- &#45;8044835276053120080 -->
<g id="node24" class="node">
<title>&#45;8044835276053120080</title>
<ellipse fill="none" stroke="black" cx="246.4" cy="-25.02" rx="25.02" ry="25.02"/>
<text xml:space="preserve" text-anchor="middle" x="246.4" y="-19.22" font-family="Helvetica,sans-Serif" font-size="14.00">mul</text>
</g>
<!-- 2680947685884225040&#45;&gt;&#45;8044835276053120080 -->
<g id="edge25" class="edge">
<title>2680947685884225040&#45;&gt;&#45;8044835276053120080</title>
<path fill="none" stroke="black" d="M166.71,-89.6C181.84,-77.19 201.88,-60.74 217.95,-47.55"/>
<polygon fill="black" stroke="black" points="219.74,-50.61 225.25,-41.56 215.3,-45.2 219.74,-50.61"/>
</g>
<!-- &#45;464163269496087825&#45;&gt;1528370338877903235 -->
<g id="edge19" class="edge">
<title>&#45;464163269496087825&#45;&gt;1528370338877903235</title>
<path fill="none" stroke="black" d="M271.63,-187.67C283.47,-186.03 297.98,-184.02 311.2,-182.19"/>
<polygon fill="black" stroke="black" points="311.46,-185.69 320.88,-180.85 310.5,-178.75 311.46,-185.69"/>
</g>
<!-- &#45;1676235758364684684 -->
<g id="node22" class="node">
<title>&#45;1676235758364684684</title>
<ellipse fill="none" stroke="black" cx="246.4" cy="-108.02" rx="40.13" ry="40.13"/>
<text xml:space="preserve" text-anchor="middle" x="246.4" y="-102.22" font-family="Helvetica,sans-Serif" font-size="14.00">uniform</text>
</g>
<!-- &#45;1676235758364684684&#45;&gt;2114742950832348199 -->
<g id="edge21" class="edge">
<title>&#45;1676235758364684684&#45;&gt;2114742950832348199</title>
<path fill="none" stroke="black" d="M286.79,-110.75C294.67,-111.29 302.94,-111.87 310.76,-112.41"/>
<polygon fill="black" stroke="black" points="310.47,-115.9 320.69,-113.1 310.95,-108.91 310.47,-115.9"/>
</g>
<!-- &#45;1772089014384944491&#45;&gt;3065342511703924247 -->
<g id="edge22" class="edge">
<title>&#45;1772089014384944491&#45;&gt;3065342511703924247</title>
<path fill="none" stroke="black" d="M821.95,-172.02C829.36,-172.02 837.68,-172.02 845.75,-172.02"/>
<polygon fill="black" stroke="black" points="845.75,-175.52 855.75,-172.02 845.75,-168.52 845.75,-175.52"/>
</g>
<!-- &#45;8044835276053120080&#45;&gt;&#45;1515695460044268345 -->
<g id="edge24" class="edge">
<title>&#45;8044835276053120080&#45;&gt;&#45;1515695460044268345</title>
<path fill="none" stroke="black" d="M271.12,-30.21C333.79,-43.93 504.2,-81.23 580.13,-97.84"/>
<polygon fill="black" stroke="black" points="579.06,-101.19 589.57,-99.91 580.55,-94.35 579.06,-101.19"/>
</g>
</g>
</svg>
