<?xml version="1.0" encoding="UTF-8" standalone="no"?>
<!DOCTYPE svg PUBLIC "-//W3C//DTD SVG 1.1//EN"
 "http://www.w3.org/Graphics/SVG/1.1/DTD/svg11.dtd">
<!-- Generated by graphviz version 13.1.2 (0)
 -->
<!-- Pages: 1 -->
<svg width="378pt" height="284pt"
 viewBox="0.00 0.00 378.00 284.00" xmlns="http://www.w3.org/2000/svg" xmlns:xlink="http://www.w3.org/1999/xlink">
<g id="graph0" class="graph" transform="scale(1 1) rotate(0) translate(4 280.27)">
<polygon fill="white" stroke="none" points="-4,4 -4,-280.27 373.71,-280.27 373.71,4 -4,4"/>
<!-- &#45;5809424638536291063 -->
<g id="node1" class="node">
<title>&#45;5809424638536291063</title>
<ellipse fill="none" stroke="black" cx="242.99" cy="-138.13" rx="36.72" ry="36.72"/>
<text xml:space="preserve" text-anchor="middle" x="242.99" y="-132.33" font-family="Helvetica,sans-Serif" font-size="14.00">truediv</text>
</g>
<!-- 3479070291513355033 -->
<g id="node2" class="node">
<title>3479070291513355033</title>
<polygon fill="none" stroke="black" points="369.71,-156.13 315.71,-156.13 315.71,-120.13 369.71,-120.13 369.71,-156.13"/>
<text xml:space="preserve" text-anchor="middle" x="342.71" y="-132.33" font-family="Helvetica,sans-Serif" font-size="14.00">0</text>
</g>
<!-- &#45;5809424638536291063&#45;&gt;3479070291513355033 -->
<g id="edge1" class="edge">
<title>&#45;5809424638536291063&#45;&gt;3479070291513355033</title>
<path fill="none" stroke="black" d="M280.1,-138.13C287.83,-138.13 296.01,-138.13 303.8,-138.13"/>
<polygon fill="black" stroke="black" points="303.7,-141.63 313.7,-138.13 303.7,-134.63 303.7,-141.63"/>
</g>
<!-- &#45;5992585940806271358 -->
<g id="node3" class="node">
<title>&#45;5992585940806271358</title>
<polygon fill="none" stroke="black" points="170.27,-232.13 116.27,-232.13 116.27,-196.13 170.27,-196.13 170.27,-232.13"/>
<text xml:space="preserve" text-anchor="middle" x="143.27" y="-208.33" font-family="Helvetica,sans-Serif" font-size="14.00">0</text>
</g>
<!-- &#45;5992585940806271358&#45;&gt;&#45;5809424638536291063 -->
<g id="edge2" class="edge">
<title>&#45;5992585940806271358&#45;&gt;&#45;5809424638536291063</title>
<path fill="none" stroke="black" d="M167.92,-195.74C178.92,-187.18 192.27,-176.8 204.59,-167.22"/>
<polygon fill="black" stroke="black" points="206.39,-170.26 212.13,-161.36 202.09,-164.73 206.39,-170.26"/>
</g>
<!-- 5037327204132545483 -->
<g id="node4" class="node">
<title>5037327204132545483</title>
<polygon fill="none" stroke="black" points="170.27,-156.13 116.27,-156.13 116.27,-120.13 170.27,-120.13 170.27,-156.13"/>
<text xml:space="preserve" text-anchor="middle" x="143.27" y="-132.33" font-family="Helvetica,sans-Serif" font-size="14.00">0</text>
</g>
<!-- 5037327204132545483&#45;&gt;&#45;5809424638536291063 -->
<g id="edge3" class="edge">
<title>5037327204132545483&#45;&gt;&#45;5809424638536291063</title>
<path fill="none" stroke="black" d="M170.71,-138.13C178.09,-138.13 186.34,-138.13 194.53,-138.13"/>
<polygon fill="black" stroke="black" points="194.47,-141.63 204.47,-138.13 194.47,-134.63 194.47,-141.63"/>
</g>
<!-- &#45;8949149096660732810 -->
<g id="node5" class="node">
<title>&#45;8949149096660732810</title>
<polygon fill="none" stroke="black" points="170.27,-80.13 116.27,-80.13 116.27,-44.13 170.27,-44.13 170.27,-80.13"/>
<text xml:space="preserve" text-anchor="middle" x="143.27" y="-56.33" font-family="Helvetica,sans-Serif" font-size="14.00">0</text>
</g>
<!-- &#45;8949149096660732810&#45;&gt;&#45;5809424638536291063 -->
<g id="edge4" class="edge">
<title>&#45;8949149096660732810&#45;&gt;&#45;5809424638536291063</title>
<path fill="none" stroke="black" d="M167.92,-80.53C178.92,-89.09 192.27,-99.47 204.59,-109.05"/>
<polygon fill="black" stroke="black" points="202.09,-111.54 212.13,-114.91 206.39,-106.01 202.09,-111.54"/>
</g>
<!-- &#45;7603663397604297591 -->
<g id="node6" class="node">
<title>&#45;7603663397604297591</title>
<ellipse fill="none" stroke="black" cx="40.13" cy="-236.13" rx="40.13" ry="40.13"/>
<text xml:space="preserve" text-anchor="middle" x="40.13" y="-230.33" font-family="Helvetica,sans-Serif" font-size="14.00">uniform</text>
</g>
<!-- &#45;7603663397604297591&#45;&gt;&#45;5992585940806271358 -->
<g id="edge5" class="edge">
<title>&#45;7603663397604297591&#45;&gt;&#45;5992585940806271358</title>
<path fill="none" stroke="black" d="M79.66,-227.75C87.85,-225.97 96.5,-224.09 104.66,-222.32"/>
<polygon fill="black" stroke="black" points="105.27,-225.76 114.3,-220.22 103.78,-218.92 105.27,-225.76"/>
</g>
<!-- &#45;1297957541463633548 -->
<g id="node7" class="node">
<title>&#45;1297957541463633548</title>
<ellipse fill="none" stroke="black" cx="40.13" cy="-138.13" rx="40.13" ry="40.13"/>
<text xml:space="preserve" text-anchor="middle" x="40.13" y="-132.33" font-family="Helvetica,sans-Serif" font-size="14.00">uniform</text>
</g>
<!-- &#45;1297957541463633548&#45;&gt;5037327204132545483 -->
<g id="edge6" class="edge">
<title>&#45;1297957541463633548&#45;&gt;5037327204132545483</title>
<path fill="none" stroke="black" d="M80.52,-138.13C88.41,-138.13 96.67,-138.13 104.49,-138.13"/>
<polygon fill="black" stroke="black" points="104.42,-141.63 114.42,-138.13 104.42,-134.63 104.42,-141.63"/>
</g>
<!-- 9160343033962974453 -->
<g id="node8" class="node">
<title>9160343033962974453</title>
<ellipse fill="none" stroke="black" cx="40.13" cy="-40.13" rx="40.13" ry="40.13"/>
<text xml:space="preserve" text-anchor="middle" x="40.13" y="-34.33" font-family="Helvetica,sans-Serif" font-size="14.00">uniform</text>
</g>
<!-- 9160343033962974453&#45;&gt;&#45;8949149096660732810 -->
<g id="edge7" class="edge">
<title>9160343033962974453&#45;&gt;&#45;8949149096660732810</title>
<path fill="none" stroke="black" d="M79.66,-48.51C87.85,-50.3 96.5,-52.18 104.66,-53.95"/>
<polygon fill="black" stroke="black" points="103.78,-57.34 114.3,-56.05 105.27,-50.5 103.78,-57.34"/>
</g>
</g>
</svg>
